<svg id="logo-bw" xmlns="http://www.w3.org/2000/svg" viewBox="0 0 1586 992" width="600" height="375" data-fg-d3bl0="0.8:2004.12978:/src/app/App.tsx:19:5:750:7530:e:svg:etxtetetetetete:1" data-fgid-d3bl0=":r7:" data-fg-callsite-d3bl92=""><defs data-fg-d3bl1="0.8:2004.12978:/src/app/App.tsx:20:7:853:2063:e:defs:etetetetetete"><linearGradient id="bg-logo-bw" gradientUnits="userSpaceOnUse" x1="760" y1="350" x2="760" y2="905" data-fg-d3bl2="0.8:2004.12978:/src/app/App.tsx:21:9:868:382:e:linearGradient:x"><stop offset="0" stop-color="#ffffff" data-fg-d3bl5="0.8:2004.12978:/src/app/App.tsx:22:19:986:33:e:stop"></stop><stop offset="1" stop-color="#ffffff" data-fg-d3bl6="0.8:2004.12978:/src/app/App.tsx:22:52:1019:33:e:stop"></stop></linearGradient><linearGradient id="letter-logo-bw" gradientUnits="userSpaceOnUse" x1="900" y1="260" x2="1300" y2="800" data-fg-d3bl12="0.8:2004.12978:/src/app/App.tsx:24:9:1259:346:e:linearGradient:x"><stop offset="0" stop-color="#ffffff" data-fg-d3bl15="0.8:2004.12978:/src/app/App.tsx:25:19:1382:33:e:stop"></stop><stop offset="1" stop-color="#ffffff" data-fg-d3bl16="0.8:2004.12978:/src/app/App.tsx:25:52:1415:33:e:stop"></stop></linearGradient><linearGradient id="node-logo-bw" gradientUnits="userSpaceOnUse" x1="60" y1="120" x2="380" y2="880" data-fg-d3bl21="0.8:2004.12978:/src/app/App.tsx:27:9:1614:301:e:linearGradient:x"><stop offset="0" stop-color="#ffffff" data-fg-d3bl24="0.8:2004.12978:/src/app/App.tsx:28:19:1733:33:e:stop"></stop><stop offset="1" stop-color="#ffffff" data-fg-d3bl25="0.8:2004.12978:/src/app/App.tsx:28:52:1766:33:e:stop"></stop></linearGradient><linearGradient id="nodeBottom-logo-bw" gradientUnits="userSpaceOnUse" x1="60" y1="700" x2="380" y2="920" data-fg-d3bl29="0.8:2004.12978:/src/app/App.tsx:30:9:1924:307:e:linearGradient:x"><stop offset="0" stop-color="#ffffff" data-fg-d3bl32="0.8:2004.12978:/src/app/App.tsx:31:19:2049:33:e:stop"></stop><stop offset="1" stop-color="#ffffff" data-fg-d3bl33="0.8:2004.12978:/src/app/App.tsx:31:52:2082:33:e:stop"></stop></linearGradient><clipPath id="borderClip-logo-bw" data-fg-d3bl37="0.8:2004.12978:/src/app/App.tsx:33:9:2240:87:e:clipPath:e"><path d="M 564,153 L 1372,153 Q 1507,153 1477,285 L 1349,713 Q 1321,845 1224,845 L 564,845 C 375,845 218,688 218,499 C 218,310 375,153 564,153 Z" data-fg-d3bl38="0.8:2004.12978:/src/app/App.tsx:34:11:2285:22:e:path"></path></clipPath><clipPath id="sunClip-logo-bw" data-fg-d3bl39="0.8:2004.12978:/src/app/App.tsx:36:9:2336:114:e:clipPath:e"><polygon points="400,350 755,350 605,650 400,650" data-fg-d3bl40="0.8:2004.12978:/src/app/App.tsx:37:11:2378:52:e:polygon"></polygon></clipPath><linearGradient id="sunGrad-logo-bw" x1="546" y1="510" x2="814" y2="510" gradientUnits="userSpaceOnUse" data-fg-d3bl41="0.8:2004.12978:/src/app/App.tsx:39:9:2459:443:e:linearGradient:x"><stop offset="0" stop-color="rgba(255,255,255,0.4)" data-fg-d3bl44="0.8:2004.12978:/src/app/App.tsx:40:19:2582:53:e:stop"></stop><stop offset="0.3" stop-color="#ffffff" data-fg-d3bl45="0.8:2004.12978:/src/app/App.tsx:40:72:2635:35:e:stop"></stop><stop offset="1" stop-color="#ffffff" data-fg-d3bl46="0.8:2004.12978:/src/app/App.tsx:40:107:2670:33:e:stop"></stop></linearGradient></defs><rect width="1586" height="992" fill="#000000" data-fg-d3bl53="0.8:2004.12978:/src/app/App.tsx:44:14:2931:43:e:rect"></rect><path fill="#000000" d="M 564,153 L 1372,153 Q 1507,153 1477,285 L 1349,713 Q 1321,845 1224,845 L 564,845 C 375,845 218,688 218,499 C 218,310 375,153 564,153 Z" data-fg-d3bl54="0.8:2004.12978:/src/app/App.tsx:46:7:2983:40:e:path"></path><g clip-path="url(#borderClip-logo-bw)" data-fg-d3bl55="0.8:2004.12978:/src/app/App.tsx:48:7:3031:3757:e:g:xtxtxtxtxtxtxtxtxtx"><polygon points="450.6,751.8 431.3,785.3 392.6,785.3 373.2,751.8 392.6,718.2 431.3,718.2" fill="#ffffff" opacity="0.9" data-fg-d3bl58="0.8:2004.12978:/src/app/App.tsx:60:27:3896:81:e:polygon"></polygon><polygon points="374.5,685.9 355.1,719.4 316.4,719.4 297.0,685.9 316.4,652.4 355.1,652.4" fill="#ffffff" opacity="0.9" data-fg-d3bl58="0.8:2004.12978:/src/app/App.tsx:60:27:3896:81:e:polygon"></polygon><polygon points="324.9,598.2 305.5,631.8 266.8,631.8 247.5,598.2 266.8,564.7 305.5,564.7" fill="#ffffff" opacity="0.9" data-fg-d3bl58="0.8:2004.12978:/src/app/App.tsx:60:27:3896:81:e:polygon"></polygon><polygon points="307.7,499.0 288.4,532.5 249.6,532.5 230.3,499.0 249.6,465.5 288.4,465.5" fill="#ffffff" opacity="0.9" data-fg-d3bl58="0.8:2004.12978:/src/app/App.tsx:60:27:3896:81:e:polygon"></polygon><polygon points="324.9,399.8 305.5,433.3 266.8,433.3 247.5,399.8 266.8,366.2 305.5,366.2" fill="#ffffff" opacity="0.9" data-fg-d3bl58="0.8:2004.12978:/src/app/App.tsx:60:27:3896:81:e:polygon"></polygon><polygon points="374.5,312.1 355.1,345.6 316.4,345.6 297.0,312.1 316.4,278.6 355.1,278.6" fill="#ffffff" opacity="0.9" data-fg-d3bl58="0.8:2004.12978:/src/app/App.tsx:60:27:3896:81:e:polygon"></polygon><polygon points="450.6,246.2 431.3,279.8 392.6,279.8 373.2,246.2 392.6,212.7 431.3,212.7" fill="#ffffff" opacity="0.9" data-fg-d3bl58="0.8:2004.12978:/src/app/App.tsx:60:27:3896:81:e:polygon"></polygon><polygon points="544.5,209.8 525.2,243.3 486.4,243.3 467.1,209.8 486.4,176.3 525.2,176.3" fill="#ffffff" opacity="0.9" data-fg-d3bl58="0.8:2004.12978:/src/app/App.tsx:60:27:3896:81:e:polygon"></polygon><polygon points="645.2,207.1 625.8,240.6 587.1,240.6 567.7,207.1 587.1,173.5 625.8,173.5" fill="#ffffff" opacity="0.9" data-fg-d3bl58="0.8:2004.12978:/src/app/App.tsx:60:27:3896:81:e:polygon"></polygon><polygon points="457.9,669.3 442.9,695.2 413.0,695.2 398.0,669.3 413.0,643.4 442.9,643.4" fill="#ffffff" opacity="0.75" data-fg-d3bl61="0.8:2004.12978:/src/app/App.tsx:71:27:4720:85:e:polygon"></polygon><polygon points="406.7,610.7 391.8,636.6 361.8,636.6 346.9,610.7 361.8,584.8 391.8,584.8" fill="#ffffff" opacity="0.75" data-fg-d3bl61="0.8:2004.12978:/src/app/App.tsx:71:27:4720:85:e:polygon"></polygon><polygon points="379.4,537.9 364.5,563.8 334.5,563.8 319.6,537.9 334.5,512.0 364.5,512.0" fill="#ffffff" opacity="0.75" data-fg-d3bl61="0.8:2004.12978:/src/app/App.tsx:71:27:4720:85:e:polygon"></polygon><polygon points="379.4,460.1 364.5,486.0 334.5,486.0 319.6,460.1 334.5,434.2 364.5,434.2" fill="#ffffff" opacity="0.75" data-fg-d3bl61="0.8:2004.12978:/src/app/App.tsx:71:27:4720:85:e:polygon"></polygon><polygon points="406.7,387.3 391.8,413.2 361.8,413.2 346.9,387.3 361.8,361.4 391.8,361.4" fill="#ffffff" opacity="0.75" data-fg-d3bl61="0.8:2004.12978:/src/app/App.tsx:71:27:4720:85:e:polygon"></polygon><polygon points="457.9,328.7 442.9,354.6 413.0,354.6 398.0,328.7 413.0,302.8 442.9,302.8" fill="#ffffff" opacity="0.75" data-fg-d3bl61="0.8:2004.12978:/src/app/App.tsx:71:27:4720:85:e:polygon"></polygon><polygon points="526.3,291.7 511.4,317.7 481.4,317.7 466.5,291.7 481.4,265.8 511.4,265.8" fill="#ffffff" opacity="0.75" data-fg-d3bl61="0.8:2004.12978:/src/app/App.tsx:71:27:4720:85:e:polygon"></polygon><polygon points="603.4,281.2 588.4,307.1 558.5,307.1 543.5,281.2 558.5,255.3 588.4,255.3" fill="#ffffff" opacity="0.75" data-fg-d3bl61="0.8:2004.12978:/src/app/App.tsx:71:27:4720:85:e:polygon"></polygon><polygon points="472.0,607.5 460.6,627.3 437.7,627.3 426.3,607.5 437.7,587.7 460.6,587.7" fill="#ffffff" opacity="0.6" data-fg-d3bl64="0.8:2004.12978:/src/app/App.tsx:81:27:5463:84:e:polygon"></polygon><polygon points="440.1,557.4 428.6,577.2 405.7,577.2 394.3,557.4 405.7,537.6 428.6,537.6" fill="#ffffff" opacity="0.6" data-fg-d3bl64="0.8:2004.12978:/src/app/App.tsx:81:27:5463:84:e:polygon"></polygon><polygon points="428.9,499.0 417.4,518.8 394.6,518.8 383.1,499.0 394.6,479.2 417.4,479.2" fill="#ffffff" opacity="0.6" data-fg-d3bl64="0.8:2004.12978:/src/app/App.tsx:81:27:5463:84:e:polygon"></polygon><polygon points="440.1,440.6 428.6,460.4 405.7,460.4 394.3,440.6 405.7,420.8 428.6,420.8" fill="#ffffff" opacity="0.6" data-fg-d3bl64="0.8:2004.12978:/src/app/App.tsx:81:27:5463:84:e:polygon"></polygon><polygon points="472.0,390.5 460.6,410.3 437.7,410.3 426.3,390.5 437.7,370.7 460.6,370.7" fill="#ffffff" opacity="0.6" data-fg-d3bl64="0.8:2004.12978:/src/app/App.tsx:81:27:5463:84:e:polygon"></polygon><polygon points="520.2,355.7 508.8,375.6 485.9,375.6 474.5,355.7 485.9,335.9 508.8,335.9" fill="#ffffff" opacity="0.6" data-fg-d3bl64="0.8:2004.12978:/src/app/App.tsx:81:27:5463:84:e:polygon"></polygon><polygon points="577.9,341.3 566.5,361.1 543.6,361.1 532.1,341.3 543.6,321.4 566.5,321.4" fill="#ffffff" opacity="0.6" data-fg-d3bl64="0.8:2004.12978:/src/app/App.tsx:81:27:5463:84:e:polygon"></polygon><polygon points="487.4,560.9 479.0,575.4 462.3,575.4 453.9,560.9 462.3,546.4 479.0,546.4" fill="#ffffff" opacity="0.45" data-fg-d3bl67="0.8:2004.12978:/src/app/App.tsx:90:27:6120:84:e:polygon"></polygon><polygon points="470.8,520.7 462.5,535.2 445.8,535.2 437.4,520.7 445.8,506.2 462.5,506.2" fill="#ffffff" opacity="0.45" data-fg-d3bl67="0.8:2004.12978:/src/app/App.tsx:90:27:6120:84:e:polygon"></polygon><polygon points="470.8,477.3 462.5,491.8 445.8,491.8 437.4,477.3 445.8,462.8 462.5,462.8" fill="#ffffff" opacity="0.45" data-fg-d3bl67="0.8:2004.12978:/src/app/App.tsx:90:27:6120:84:e:polygon"></polygon><polygon points="487.4,437.1 479.0,451.6 462.3,451.6 453.9,437.1 462.3,422.6 479.0,422.6" fill="#ffffff" opacity="0.45" data-fg-d3bl67="0.8:2004.12978:/src/app/App.tsx:90:27:6120:84:e:polygon"></polygon><polygon points="517.9,406.3 509.6,420.7 492.8,420.7 484.5,406.3 492.8,391.8 509.6,391.8" fill="#ffffff" opacity="0.45" data-fg-d3bl67="0.8:2004.12978:/src/app/App.tsx:90:27:6120:84:e:polygon"></polygon><polygon points="557.9,389.3 549.5,403.8 532.8,403.8 524.5,389.3 532.8,374.9 549.5,374.9" fill="#ffffff" opacity="0.45" data-fg-d3bl67="0.8:2004.12978:/src/app/App.tsx:90:27:6120:84:e:polygon"></polygon><polygon points="503.1,528.2 497.4,538.1 485.9,538.1 480.2,528.2 485.9,518.3 497.4,518.3" fill="#ffffff" opacity="0.3" data-fg-d3bl70="0.8:2004.12978:/src/app/App.tsx:98:27:6692:83:e:polygon"></polygon><polygon points="497.4,499.0 491.7,508.9 480.3,508.9 474.6,499.0 480.3,489.1 491.7,489.1" fill="#ffffff" opacity="0.3" data-fg-d3bl70="0.8:2004.12978:/src/app/App.tsx:98:27:6692:83:e:polygon"></polygon><polygon points="503.1,469.8 497.4,479.7 485.9,479.7 480.2,469.8 485.9,459.9 497.4,459.9" fill="#ffffff" opacity="0.3" data-fg-d3bl70="0.8:2004.12978:/src/app/App.tsx:98:27:6692:83:e:polygon"></polygon><polygon points="519.3,444.9 513.5,454.8 502.1,454.8 496.4,444.9 502.1,435.0 513.5,435.0" fill="#ffffff" opacity="0.3" data-fg-d3bl70="0.8:2004.12978:/src/app/App.tsx:98:27:6692:83:e:polygon"></polygon><polygon points="543.6,427.8 537.9,437.7 526.4,437.7 520.7,427.8 526.4,417.9 537.9,417.9" fill="#ffffff" opacity="0.3" data-fg-d3bl70="0.8:2004.12978:/src/app/App.tsx:98:27:6692:83:e:polygon"></polygon></g><circle cx="660" cy="530" r="134" fill="url(#sunGrad-logo-bw)" clip-path="url(#sunClip-logo-bw)" data-fg-d3bl71="0.8:2004.12978:/src/app/App.tsx:101:7:6796:98:e:circle"></circle><g clip-path="url(#borderClip-logo-bw)" data-fg-d3bl72="0.8:2004.12978:/src/app/App.tsx:103:7:6902:531:e:g:etete"><g transform="matrix(1 0 -0.5 1 255 0)" data-fg-d3bl73="0.8:2004.12978:/src/app/App.tsx:104:9:6950:182:e:g:e"><path d="M 700,240 Q 700,190 750,190 L 780,190 Q 830,190 830,240 L 830,815 L 700,815 Z" fill="url(#letter-logo-bw)" data-fg-d3bl74="0.8:2004.12978:/src/app/App.tsx:105:11:7001:118:e:path"></path></g><g transform="matrix(1 0 -0.3 1 153 0)" data-fg-d3bl75="0.8:2004.12978:/src/app/App.tsx:107:9:7141:190:e:g:e"><path d="M 1215,190 L 1295,190 Q 1345,190 1345,240 L 1345,765 Q 1345,815 1295,815 L 1215,815 Z" fill="url(#letter-logo-bw)" data-fg-d3bl76="0.8:2004.12978:/src/app/App.tsx:108:11:7192:126:e:path"></path></g><polygon points="895,190 1025,190 1105,815 975,815" fill="url(#letter-logo-bw)" data-fg-d3bl77="0.8:2004.12978:/src/app/App.tsx:110:9:7340:82:e:polygon"></polygon></g><path fill="none" stroke="url(#bg-logo-bw)" stroke-width="31" stroke-linejoin="round" d="M 564,140 L 1372,140 Q 1520,140 1490,285 L 1362,713 Q 1334,858 1224,858 L 564,858 C 366,858 205,697 205,499 C 205,301 366,140 564,140 Z" data-fg-d3bl78="0.8:2004.12978:/src/app/App.tsx:113:7:7441:102:e:path"></path><g data-fg-d3bl79="0.8:2004.12978:/src/app/App.tsx:115:7:7551:718:e:g:etetetetete"><path fill="url(#node-logo-bw)" d="M 260.4,142.6 L 270.0,152.8 Q 314.0,185.0 353.0,194.0 L 276.0,268.0 Q 272.0,233.0 253.9,167.8 L 244.3,157.6 Z" data-fg-d3bl80="0.8:2004.12978:/src/app/App.tsx:116:9:7563:148:e:path"></path><circle fill="url(#node-logo-bw)" cx="226.5" cy="122.0" r="44" data-fg-d3bl81="0.8:2004.12978:/src/app/App.tsx:117:9:7720:65:e:circle"></circle><path fill="url(#node-logo-bw)" d="M 109.0,488.0 L 121.0,488.0 Q 178.0,470.0 198.0,449.0 L 198.0,549.0 Q 178.0,527.0 121.0,510.0 L 109.0,510.0 Z" data-fg-d3bl82="0.8:2004.12978:/src/app/App.tsx:118:9:7794:148:e:path"></path><circle fill="url(#node-logo-bw)" cx="69.0" cy="499.0" r="46" data-fg-d3bl83="0.8:2004.12978:/src/app/App.tsx:119:9:7951:64:e:circle"></circle><path fill="url(#nodeBottom-logo-bw)" d="M 244.3,840.4 L 253.9,830.2 Q 284.0,758.0 276.0,730.0 L 353.0,802.0 Q 330.0,808.0 270.0,845.2 L 260.4,855.4 Z" data-fg-d3bl84="0.8:2004.12978:/src/app/App.tsx:120:9:8024:154:e:path"></path><circle fill="url(#nodeBottom-logo-bw)" cx="226.5" cy="876.0" r="44" data-fg-d3bl85="0.8:2004.12978:/src/app/App.tsx:121:9:8187:71:e:circle"></circle></g></svg>